<svg xmlns="http://www.w3.org/2000/svg" version="1.1" xmlns:xlink="http://www.w3.org/1999/xlink" xmlns:svgjs="http://svgjs.com/svgjs" width="1440" height="560" preserveAspectRatio="none" viewBox="0 0 1440 560"><g mask="url(&quot;#SvgjsMask1003&quot;)" fill="none"><rect width="1440" height="560" x="0" y="0" fill="rgba(14, 42, 71, 0.74)"></rect><path d="M588.39 608.99C739.23 602.07 831.58 356.95 1131.36 344.39 1431.14 331.83 1525.37 103.66 1674.33 97.99" stroke="rgba(51, 121, 194, 1)" stroke-width="2"></path><path d="M273.6 654.41C463.56 642.05 581.15 291.86 938.07 282.56 1294.99 273.26 1432.18 132.31 1602.54 131.36" stroke="rgba(51, 121, 194, 1)" stroke-width="2"></path><path d="M331.46 652.51C472.42 632.54 545.09 305.04 780.11 301.79 1015.14 298.54 1004.44 371.79 1228.77 371.79 1453.09 371.79 1563.9 302 1677.42 301.79" stroke="rgba(51, 121, 194, 1)" stroke-width="2"></path><path d="M141.02 632.17C311.52 577.98 343.56 99.51 603.15 85.77 862.74 72.03 834.21 155.77 1065.27 155.77 1296.34 155.77 1410.55 85.97 1527.4 85.77" stroke="rgba(51, 121, 194, 1)" stroke-width="2"></path><path d="M48.02 590.06C248.26 577.62 377.44 211.51 751.42 203.74 1125.4 195.97 1276.29 81 1454.82 80.54" stroke="rgba(51, 121, 194, 1)" stroke-width="2"></path></g><defs><mask id="SvgjsMask1003"><rect width="1440" height="560" fill="#ffffff"></rect></mask></defs></svg>