<svg xmlns="http://www.w3.org/2000/svg" version="1.1" xmlns:xlink="http://www.w3.org/1999/xlink" xmlns:svgjs="http://svgjs.com/svgjs" width="1440" height="560" preserveAspectRatio="none" viewBox="0 0 1440 560"><g clip-path="url(&quot;#SvgjsClipPath1149&quot;)" fill="none"><rect width="1440" height="560" x="0" y="0" fill="rgba(177, 218, 231, 0.3)"></rect><circle r="51.715" cx="114.06" cy="217.01" fill="rgba(177, 218, 231, 1)"></circle><circle r="23.885" cx="1167.15" cy="250.6" fill="rgba(177, 218, 231, 1)"></circle><circle r="54.775" cx="590.95" cy="218.76" fill="rgba(177, 218, 231, 1)"></circle><circle r="53.245" cx="277.18" cy="133.19" fill="rgba(177, 218, 231, 1)"></circle><circle r="48.965" cx="1117.39" cy="401.07" fill="url(#SvgjsLinearGradient1150)"></circle><circle r="22.45" cx="711.27" cy="519.12" fill="rgba(177, 218, 231, 1)"></circle><circle r="42.73" cx="342.96" cy="30.84" fill="url(#SvgjsLinearGradient1151)"></circle><circle r="29.81" cx="415.85" cy="28.94" fill="rgba(177, 218, 231, 1)"></circle><circle r="28.35" cx="904.91" cy="485.22" fill="url(#SvgjsLinearGradient1152)"></circle><circle r="31.98" cx="582.98" cy="140.36" fill="rgba(177, 218, 231, 1)"></circle><circle r="31.32" cx="114.48" cy="374.39" fill="url(#SvgjsLinearGradient1153)"></circle><circle r="31.955" cx="1346" cy="93.47" fill="rgba(177, 218, 231, 1)"></circle><circle r="30.56" cx="67.85" cy="270.37" fill="url(#SvgjsLinearGradient1154)"></circle><circle r="43.66" cx="1158.77" cy="336.58" fill="rgba(177, 218, 231, 1)"></circle><circle r="17.19" cx="503.87" cy="304.61" fill="rgba(177, 218, 231, 1)"></circle></g><defs><clipPath id="SvgjsClipPath1149"><rect width="1440" height="560" x="0" y="0"></rect></clipPath><linearGradient x1="1019.46" y1="401.07" x2="1215.3200000000002" y2="401.07" gradientUnits="userSpaceOnUse" id="SvgjsLinearGradient1150"><stop stop-color="#32325d" offset="0.1"></stop><stop stop-color="#424488" offset="0.9"></stop></linearGradient><linearGradient x1="257.5" y1="30.840000000000003" x2="428.41999999999996" y2="30.840000000000003" gradientUnits="userSpaceOnUse" id="SvgjsLinearGradient1151"><stop stop-color="#32325d" offset="0.1"></stop><stop stop-color="#424488" offset="0.9"></stop></linearGradient><linearGradient x1="848.2099999999999" y1="485.22" x2="961.6099999999999" y2="485.22" gradientUnits="userSpaceOnUse" id="SvgjsLinearGradient1152"><stop stop-color="#32325d" offset="0.1"></stop><stop stop-color="#424488" offset="0.9"></stop></linearGradient><linearGradient x1="51.84" y1="374.39" x2="177.12" y2="374.39" gradientUnits="userSpaceOnUse" id="SvgjsLinearGradient1153"><stop stop-color="#32325d" offset="0.1"></stop><stop stop-color="#424488" offset="0.9"></stop></linearGradient><linearGradient x1="6.729999999999997" y1="270.37" x2="128.97" y2="270.37" gradientUnits="userSpaceOnUse" id="SvgjsLinearGradient1154"><stop stop-color="#32325d" offset="0.1"></stop><stop stop-color="#424488" offset="0.9"></stop></linearGradient></defs></svg>