<svg xmlns="http://www.w3.org/2000/svg" version="1.1" xmlns:xlink="http://www.w3.org/1999/xlink" xmlns:svgjs="http://svgjs.com/svgjs" width="1440" height="560" preserveAspectRatio="none" viewBox="0 0 1440 560"><g mask="url(&quot;#SvgjsMask1148&quot;)" fill="none"><rect width="1440" height="560" x="0" y="0" fill="url(#SvgjsLinearGradient1149)"></rect><path d="M1440 0L1048.62 0L1440 202.64z" fill="rgba(255, 255, 255, .1)"></path><path d="M1048.62 0L1440 202.64L1440 319.06L522.9199999999998 0z" fill="rgba(255, 255, 255, .075)"></path><path d="M522.92 0L1440 319.06L1440 468.7L363.43999999999994 0z" fill="rgba(255, 255, 255, .05)"></path><path d="M363.44000000000005 0L1440 468.7L1440 476.55L334.4100000000001 0z" fill="rgba(255, 255, 255, .025)"></path><path d="M0 560L407.95 560L0 495.74z" fill="rgba(0, 0, 0, .1)"></path><path d="M0 495.74L407.95 560L417.39 560L0 350.77z" fill="rgba(0, 0, 0, .075)"></path><path d="M0 350.77L417.39 560L716.17 560L0 246.39999999999998z" fill="rgba(0, 0, 0, .05)"></path><path d="M0 246.39999999999998L716.17 560L1120.49 560L0 144.69z" fill="rgba(0, 0, 0, .025)"></path></g><defs><mask id="SvgjsMask1148"><rect width="1440" height="560" fill="#ffffff"></rect></mask><linearGradient x1="15.28%" y1="-39.29%" x2="84.72%" y2="139.29%" gradientUnits="userSpaceOnUse" id="SvgjsLinearGradient1149"><stop stop-color="#0e2a47" offset="0"></stop><stop stop-color="rgba(0, 69, 158, 0.2)" offset="1"></stop></linearGradient></defs></svg>